<mxfile host="app.diagrams.net" modified="2023-08-25T10:54:38.676Z" agent="Mozilla/5.0 (X11; Linux x86_64) AppleWebKit/537.36 (KHTML, like Gecko) Chrome/115.0.0.0 Safari/537.36" version="21.6.9" etag="8TyBXO3TWZJ7S6DIeSVr" type="github">
  <diagram name="Page-1" id="snVaZzXPIa3q4PJ1XPMq">
    <mxGraphModel>
      <root>
        <mxCell id="0" />
        <mxCell id="1" parent="0" />
      </root>
    </mxGraphModel>
  </diagram>
</mxfile>
